<?xml version="1.0" ?><svg xmlns="http://www.w3.org/2000/svg" xmlns:xlink="http://www.w3.org/1999/xlink" version="1.1" viewBox="0 0 512 512" style="enable-background:new 0 0 512 512;" xml:space="preserve"><g id="_x30_4_x2C__Big_Diamond_x2C__Gem_x2C__Casino_x2C__Jewel_x2C__Slot_Machine_x2C__Jewelry_x2C__Shapes_x2C__Stone"><g><polygon style="fill:#9DCAFC;" points="392.011,65.863 386.601,129.423 348.811,186.653 293.801,132.223 256.001,65.863   "/><polygon style="fill:#9DCAFC;" points="256.001,65.863 217.001,141.023 163.191,186.653 135.001,135.823 119.991,65.863   "/><path style="fill:#9DCAFC;" d="M163.191,186.653l46.405,91.037l46.405,168.493l-236.64-237.33c-6.1-6.11-9.01-14.2-8.74-22.2h0.01    l70.637-15.63L163.191,186.653z"/><polygon style="fill:#FFFFFF;" points="256.001,186.653 267.401,275.823 256.001,446.183 163.191,186.653 209.596,176.623   "/><polygon style="fill:#FFFFFF;" points="348.811,186.653 336.201,283.823 256.001,446.183 256.001,186.653 302.406,163.023   "/><path style="fill:#9DCAFC;" d="M501.381,186.653c0.27,8-2.64,16.09-8.74,22.2l-236.64,237.33l92.81-259.53l76.285-23.63    L501.381,186.653z"/><path style="fill:#FFFFFF;" d="M501.381,186.653h-152.57l43.2-120.79l100.6,100.6    C498.211,172.063,501.131,179.313,501.381,186.653z"/><polygon style="fill:#FFFFFF;" points="256.001,65.863 265.401,147.423 256.001,186.653 163.191,186.653   "/><path style="fill:#FFFFFF;" d="M119.991,65.863l43.2,120.79H10.631h-0.01c0.25-7.34,3.17-14.59,8.77-20.19L119.991,65.863z"/><polygon style="fill:#FFFFFF;" points="256.001,65.863 348.811,186.653 256.001,186.653   "/><g><path style="fill:#4269A7;" d="M499.682,159.391C396.258,56.147,398.806,57.665,395.375,56.444     c-3.028-1.077,14.56-0.375-275.381-0.584c-0.593,0-1.422,0.081-2.16,0.244c-4.213,0.94-2.096-0.047-105.514,103.287     c-15.663,15.664-15.488,41.035-0.04,56.527l236.507,237.196c3.907,4.098,10.528,4.058,14.404,0.023l236.53-237.219     C515.261,200.335,515.249,174.959,499.682,159.391z M488.087,176.652H363.008L396.105,84.1     C490.018,178.215,485.998,173.491,488.087,176.652z M246.001,176.652h-62.516l62.516-81.365V176.652z M266.001,95.288     l62.516,81.365h-62.516V95.288z M276.295,75.86h101.516l-32.242,90.16L276.295,75.86z M166.432,166.02L134.19,75.86h101.516     L166.432,166.02z M246.001,196.652v191.872l-68.615-191.872H246.001z M266.001,196.652h68.615l-68.615,191.872V196.652z      M115.897,84.1l33.097,92.552H23.915C26.025,173.46,22.105,178.093,115.897,84.1z M22.747,196.652h133.399l75.399,210.844     C14.766,189.547,25.51,202.161,22.747,196.652z M280.457,407.496l75.399-210.844h133.399     C486.495,202.155,497.418,189.364,280.457,407.496z"/></g></g></g><g id="Layer_1"/></svg>