<?xml version="1.0" ?><svg xmlns="http://www.w3.org/2000/svg" xmlns:xlink="http://www.w3.org/1999/xlink" version="1.1" viewBox="0 0 512 512" style="enable-background:new 0 0 512 512;" xml:space="preserve"><g id="_x35_0_x2C__Watermelon_x2C__Slot_Machine_x2C__Food_and_Restaurant_x2C__Healthy_x2C__Food_x2C__Fruit_x2C_"><g><path style="fill:#FFFFFF;" d="M81.94,73.08C4.18,150.84-13.95,287.57,51.91,371.32l129.357-245.387L379.02,73.19    C297.22-8.78,164.15-9.14,81.94,73.08z"/><path style="fill:#FFFFFF;" d="M393.3,88.97c-0.11-0.13-0.22-0.27-0.33-0.4l-129.9,241.84c-0.02,0.01-0.04,0.02-0.06,0.03    l69.723,22.693l77.327-22.693c1.46-2.41,2.88-4.84,4.23-7.3v-0.01C455.12,249.32,448.11,156.14,393.3,88.97z"/><path style="fill:#FFFFFF;" d="M161.7,391.43l-90.84-5.84l-7.34-0.97c6.14,6.1,15.41,14.38,22.67,19.65    c30.21,21.88,66.55,33.4,104.24,35.72L161.7,391.43z"/><path style="fill:#9DCAFC;" d="M392.97,88.57c-2.34-2.85-4.74-5.61-7.19-8.3l-0.58,0.53L174.92,330.44h21.81L233,340.867    l30.01-10.427c0.02-0.01,0.04-0.02,0.06-0.03l19.06-8.76c21.31-9.79,38.15-27.26,47.17-48.92c1.68-3.15,7.13-22.77,26.9-40.2    c20.54-18.15,32.06-44.43,31.48-71.84l-0.32-14.68c-0.08-4.13,0.11-8.26,0.56-12.36L392.97,88.57z"/><path style="fill:#9DCAFC;" d="M379.02,73.19l-45-8.66c-3.92-0.75-7.88-1.25-11.88-1.5l-20.5-1.26    c-26.94-1.66-53.28,8.44-72.21,27.69l-6.48,6.58c-8.53,8.67-18.66,15.59-29.84,20.37l-13.36,5.71    c-21.95,9.37-39.45,26.79-48.94,48.69l-4.62,10.68c-5.4,12.44-13.43,23.55-23.55,32.57l-7.85,6.99    c-18.3,16.31-29.45,39.17-31.03,63.63c-1.68,23.82-1.41,27.23-2.86,35.52l-8.99,51.12c2.98,3.8,6.14,7.49,9.47,11.05l0.82-0.76    L220.733,187.8L380.33,74.51C379.9,74.07,379.46,73.63,379.02,73.19z"/><path style="fill:#9DCAFC;" d="M161.7,391.43c-1.68,0.12-3.36,0.19-5.05,0.21l-28.74,0.42c-4.49,0.06-8.98-0.19-13.43-0.77    l-43.62-5.7l28.34-9.58c6.95-2.35,11.15-4.72,29-12.82c7.46-3.43,15.34-8.07,23.29-13.66    C153.12,364.13,156.61,378.18,161.7,391.43z"/><path style="fill:#FFFFFF;" d="M380.33,74.51l-28.38,7.95c-5.87,1.66-9.5,3.44-21.49,8.12c-18.08,7.21-39.4,22.34-58.42,41.48    c-4,3.82-15.53,16.71-33.42,29.86l-11,8.08c-18.04,13.26-35.52,30.71-48.85,48.76l-6.5,8.81c-14.83,20.07-29.62,32.65-33.93,37.03    c-17.68,16.93-32.46,36.16-41.13,53.53l-8.99,18.03c-3.09,6.2-4.25,7.7-26.02,45.45l-0.82,0.76c0.71,0.76,1.42,1.51,2.14,2.25    v0.01h0.02l7.32,0.96l28.34-9.58c6.95-2.35,11.15-4.72,29-12.82c7.46-3.43,15.34-8.07,23.29-13.66l23.43-19.09    c2.39-2.21,4.75-4.5,7.07-6.84l13.42-13.54c8.04-8.11,16.58-15.59,25.22-22.1l15.87-11.94c17.74-13.36,34.77-30.63,47.71-48.38    c2.23-2.86,12.24-18.18,31.02-36.08c19.8-18.89,35.89-40.6,43.98-59.34l4.33-10.04c3.09-7.16,5.28-10.47,21.66-41.38l0.58-0.53    C383.99,78.31,382.18,76.39,380.33,74.51z"/><path style="fill:#FFFFFF;" d="M454.14,330.44l-133.71,90l-123.7-90h-21.81h-24.49c0,6.45,0.36,12.82,1.06,19.09    c1.63,14.6,5.12,28.65,10.21,41.9c6.85,17.83,16.63,34.21,28.73,48.56h0.01c31.18,36.97,77.84,60.45,129.99,60.45h10    c46.95,0,89.45-19.03,120.21-49.79c30.76-30.77,49.79-73.27,49.79-120.21H454.14z"/><path style="fill:#9DCAFC;" d="M410.06,330.44h44.08c-16.91,52.17-65.97,90-123.71,90h-10c-57.73,0-106.8-37.83-123.7-90h66.28    H410.06z"/><g><path style="fill:#4269A7;" d="M500.431,320.438c-5.829,0-64.366,0-73.403,0c39.086-77.594,28.51-171.758-26.336-238.224h0.001     C317.06-19.398,166.082-25.216,74.87,66.008c-85.892,85.894-101.669,239.723-18.532,325.568l0.003-0.003     c33.556,35.129,80.675,54.241,129.373,58.103c33.001,37.243,81.16,60.763,134.717,60.763h10.001c99.252,0,180-80.748,180-180     C510.431,324.916,505.95,320.438,500.431,320.438z M377.363,146.227l0.32,14.674c0.52,24.518-9.725,47.895-28.096,64.128     c-37.036,32.653-22.489,64.957-71.633,87.535c-9.382,4.313-14.534,6.679-17.135,7.876l-61.659,0     c7.72-7.806,16.142-15.945,27.482-24.489c8.054-6.775,38.431-25.133,65.569-62.312c47.409-62.016,31.25-20.196,80.511-107.498     c1.73-4.009,3.226-6.836,7.721-15.205C377.965,132.555,377.189,137.216,377.363,146.227z M147.899,381.764     c-24.109,0.327-23.728,0.681-34.7-0.707c19.173-8.795,22.679-10.136,30.807-14.851     C145.073,371.48,146.38,376.667,147.899,381.764z M150.431,320.439c-5.522,0-10,4.478-10,10c0,4.761,0.189,9.478,0.554,14.147     c-11.065,7.283-18.113,9.987-30.525,15.759c-14.133,6.571-10.523,4.789-31.236,11.776c25.758-44.565,10.54-17.696,26.937-49.527     c8.099-16.237,22.347-34.741,39.091-50.767c7.568-7.361,20.851-19.086,35.061-38.32c3.456-4.112,20.289-31.241,53.235-55.451     c7.73-6.316,19.234-12.153,42.651-36.005c15.878-16.164,36.825-33.76,57.896-42.151c24.801-9.678,11.331-5.114,36.044-12.078     c-10.834,20.292-12.952,23.839-15.781,30.397c-49.61,87.915-35.16,43.696-76.783,101.556     c-26.05,36.234-54.215,52.86-62.962,60.198c-19.896,14.99-31.404,28.682-43.667,40.467H150.431z M64.46,357.706l6.292-35.784     c1.57-8.977,1.286-12.514,2.986-36.604c2.673-41.476,32.579-60.147,35.557-63.795c21.864-19.479,27.648-41.005,30.695-46.739     c16.603-38.344,51.023-45.515,57.046-49.181c23.862-10.189,35.276-25.396,39.528-29.135     c16.898-17.189,40.414-26.205,64.463-24.72c26.426,1.948,19.928,0.373,39.363,4.181c-2.884,1.135-7.033,2.788-13.631,5.364     c-19.294,7.684-41.785,23.583-61.724,43.63c-4.245,4.072-15.266,16.388-32.341,28.936c-5.224,4.358-35.045,22.489-61.973,58.966     c-4.954,5.914-11.063,17.847-35.852,41.241c-17.948,16.945-35.409,37.153-46.605,59.601     C72.71,343.895,85.805,320.826,64.46,357.706z M439.525,340.439c-19.377,42.38-61.624,69.999-109.094,69.999h-10     c-47.471,0-89.717-27.62-109.095-70L439.525,340.439z M404.332,320.439l-100.448,0c15.164-11.001,27.121-25.965,34.508-43.533     c2.516-5.181,7.219-21.709,24.431-36.884c22.795-20.143,35.5-49.137,34.856-79.552l-0.32-14.656     c-0.139-7.145,0.425-10.67,2.651-30.016C439.732,179.782,440.014,257.781,404.332,320.439z M89.012,80.149     C157.048,12.106,264.217,2.4,342.798,56.019c-19.596-3.826-15.657-2.358-40.541-4.233c-29.869-1.831-58.996,9.343-79.947,30.654     c-4.42,3.919-13.482,16.381-33.131,24.771c-5.832,3.609-47.374,13.052-67.542,59.626c-3.253,6.195-7.601,23.675-25.643,39.751     c-2.989,3.707-38.945,26.726-42.211,77.384c-1.659,23.535-1.413,26.958-2.73,34.498l-4.637,26.375     C1.319,265.258,19.937,149.225,89.012,80.149z M96.063,398.954c28.231,3.804,21.363,3.293,59.074,2.711     c3.893,9,8.491,17.626,13.741,25.798C141.89,422.931,117.1,413.25,96.063,398.954z M330.431,490.438H320.43     c-84.863,0-154.508-66.418-159.69-150h28.939c9.549,24.974,25.896,46.515,47.642,62.604     c44.165,32.675,87.997,26.692,93.11,27.396c59.021,0,110.389-36.804,130.767-89.999h28.925     C484.94,424.02,415.296,490.438,330.431,490.438z"/><path style="fill:#4269A7;" d="M350.223,378.152c5.406,0,9.789-4.383,9.789-9.789c0-5.406-4.383-9.789-9.789-9.789     c-5.406,0-9.789,4.383-9.789,9.789C340.435,373.77,344.817,378.152,350.223,378.152z"/><path style="fill:#4269A7;" d="M300.428,378.152c5.406,0,9.789-4.383,9.789-9.789c0-5.406-4.383-9.789-9.789-9.789     c-5.406,0-9.789,4.383-9.789,9.789C290.64,373.77,295.022,378.152,300.428,378.152z"/></g></g></g><g id="Layer_1"/></svg>