<?xml version="1.0" ?><svg viewBox="0 0 64 64" xmlns="http://www.w3.org/2000/svg"><defs><style>.cls-1{fill:#ffd2aa;}.cls-2{fill:#ff5174;}.cls-3{fill:#ffef3f;}.cls-4{fill:#00beff;}.cls-5{fill:#f1f9ff;}.cls-5,.cls-6{fill-rule:evenodd;}.cls-6{fill:#ffbe84;}</style></defs><g data-name="Ice Cream" id="Ice_Cream-3"><path class="cls-1" d="M20.57,23.14,5.43,56.8a1.35,1.35,0,0,0,1.78,1.78L40.87,43.44C40.73,31,33.68,24.47,20.57,23.14Z"/><path class="cls-2" d="M37.69,10.51a11.61,11.61,0,0,1,2.19-3A11.77,11.77,0,1,1,56.52,24.14a11.64,11.64,0,0,1-3,2.18l-11.1,4-9.85-8.41Z"/><path class="cls-3" d="M31.38,32.63a11.77,11.77,0,1,0,20.07-9.07l-.1-.1h0a11.81,11.81,0,0,0-7.48-3.32Z"/><path class="cls-4" d="M23.8,12.56a11.77,11.77,0,0,0,0,16.65l.09.09a1.38,1.38,0,0,1,.42,1,1.37,1.37,0,0,1-.41,1l-1.56,1.56A2.25,2.25,0,1,0,25.52,36l3.21-3.21A1.4,1.4,0,0,1,30,32.45,11.75,11.75,0,1,0,23.8,12.56Z"/><path class="cls-5" d="M25.9,26.71a8.14,8.14,0,0,0,11.5,0A1,1,0,0,0,36,25.3a6.14,6.14,0,0,1-8.67,0,1,1,0,0,0-1.41,0A1,1,0,0,0,25.9,26.71Z"/><path class="cls-6" d="M15.55,32.73a35.54,35.54,0,0,0,6.79,9,35.73,35.73,0,0,0,8.94,6.79A1,1,0,0,0,32.61,48a1,1,0,0,0-.47-1.33,34.05,34.05,0,0,1-8.39-6.4,34,34,0,0,1-6.39-8.38A1,1,0,0,0,16,31.4,1,1,0,0,0,15.55,32.73Z"/><path class="cls-6" d="M12,41a25,25,0,0,0,4.77,6.28A24.62,24.62,0,0,0,23,52.05a1,1,0,1,0,.85-1.8,23.57,23.57,0,0,1-5.72-4.38,23.12,23.12,0,0,1-4.37-5.72A1,1,0,0,0,12,41Z"/><path class="cls-6" d="M8.59,48.61a15.07,15.07,0,0,0,2.94,3.88,15.37,15.37,0,0,0,3.88,2.94,1,1,0,0,0,.85-1.81,13.56,13.56,0,0,1-3.32-2.55,13.65,13.65,0,0,1-2.54-3.32,1,1,0,0,0-1.81.86Z"/><path class="cls-5" d="M30.83,13.13l-.36,1.07a1,1,0,1,0,1.89.64l.37-1.06a1,1,0,0,0-1.9-.65Z"/><path class="cls-5" d="M49.73,8.58l-1.09.29a1,1,0,0,0-.7,1.23,1,1,0,0,0,1.22.7l1.09-.29a1,1,0,0,0-.52-1.93Z"/><path class="cls-5" d="M54.52,17.11l-.43,1a1,1,0,0,0,1.85.77l.43-1a1,1,0,0,0-1.85-.77Z"/><path class="cls-5" d="M47.75,24.79l-1.09.29A1,1,0,0,0,47.18,27l1.09-.29a1,1,0,0,0-.52-1.94Z"/><path class="cls-5" d="M50,34.35l-.3,1.08a1,1,0,0,0,1.94.52l.29-1.09A1,1,0,1,0,50,34.35Z"/><path class="cls-5" d="M43.29,38.67l-.9-.68a1,1,0,1,0-1.21,1.58l.89.69a1,1,0,0,0,1.22-1.59Z"/><path class="cls-5" d="M44.74,33.25l-.5-1a1,1,0,0,0-1.34-.45,1,1,0,0,0-.45,1.34l.5,1a1,1,0,0,0,1.79-.89Z"/><path class="cls-5" d="M39.15,14.11l-.9-.67a1,1,0,1,0-1.19,1.61l.9.67a1,1,0,0,0,1.19-1.61Z"/><path class="cls-5" d="M26,17.93,25,18.3a1,1,0,1,0,.67,1.89l1.06-.38A1,1,0,1,0,26,17.93Z"/><path class="cls-5" d="M34.87,19.91l-.49-1a1,1,0,1,0-1.8.88l.5,1a1,1,0,1,0,1.79-.89Z"/><path class="cls-5" d="M38.48,21.7l-.44,1a1,1,0,1,0,1.85.77l.43-1a1,1,0,0,0-.54-1.31A1,1,0,0,0,38.48,21.7Z"/><path class="cls-5" d="M50.72,16.77l-.5-1a1,1,0,1,0-1.79.89l.5,1a1,1,0,0,0,1.34.45A1,1,0,0,0,50.72,16.77Z"/></g></svg>