<?xml version="1.0" ?><svg height="57px" version="1.1" viewBox="0 0 52 57" width="52px" xmlns="http://www.w3.org/2000/svg" xmlns:xlink="http://www.w3.org/1999/xlink"><title/><desc/><defs/><g fill="none" fill-rule="evenodd" id="Page-1" stroke="none" stroke-width="1"><g fill-rule="nonzero" id="050---Ice-Cream"><g id="Icons" transform="translate(1.000000, 1.000000)"><path d="M10.91,14.13 C10.3623714,11.6158483 9.59956145,9.15344426 8.63,6.77 C6.3,1.16 4.29,1 2.25,1.85 C0.21,2.7 -1.09,4.24 1.25,9.85 C2.79548515,13.5201911 4.8562085,16.9513628 7.37,20.04 L10.91,14.13 Z" fill="#735EFF" id="Shape"/><path d="M18.277,19.437 C12.307,9.923 18.992,-1.11774468e-17 28,-1.11774468e-17 C31.6044105,-0.00659116849 35.0193015,1.61380428 37.2937759,4.40997745 C39.5682504,7.20615062 40.459371,10.8794415 39.719,14.407 L18.277,19.437 Z" fill="#F96A59" id="Shape"/><rect fill="#000000" height="7.18" id="Rectangle-path" width="4" x="25" y="42"/><path d="M34.884,55 C35.1935845,54.9969003 35.4847182,54.8522603 35.6741998,54.6074158 C35.8636814,54.3625712 35.9306622,54.0444625 35.856,53.744 C35.1,50.478 31.419,48 27,48 C22.581,48 18.905,50.478 18.144,53.744 C18.0693378,54.0444625 18.1363186,54.3625712 18.3258002,54.6074158 C18.5152818,54.8522603 18.8064155,54.9969003 19.116,55 L34.884,55 Z" fill="#FFFFFF" id="Shape"/><path d="M27,14.05 C24.8024138,12.07876 21.9521365,10.9920917 19,11 C17.9944645,10.9980848 16.992877,11.125804 16.02,11.38 C10.7107869,12.7363304 6.99725899,17.5202766 6.99999848,23 L27,23 L27,14.05 Z" fill="#FFACAD" id="Shape"/><path d="M6.133,23 C5.55243501,23.0031295 5.00146157,23.2566443 4.62139407,23.6955226 C4.24132658,24.134401 4.0691411,24.7159452 4.149,25.291 C5.456,35.258 15.188,43 27,43 C38.812,43 48.544,35.258 49.851,25.291 C49.9308589,24.7159452 49.7586734,24.134401 49.3786059,23.6955226 C48.9985384,23.2566443 48.447565,23.0031295 47.867,23 L6.133,23 Z" fill="#FFFFFF" id="Shape"/><path d="M36.61,11.11 C36.2094972,10.4792809 35.9978329,9.74713072 36,9 C35.9985443,6.96095115 37.5311096,5.24716994 39.5576524,5.02167833 C41.5841953,4.79618673 43.4559936,6.13116744 43.9027905,8.12066358 C44.3495873,10.1101597 43.2283574,12.1173084 41.3,12.78 L36.61,11.11 Z" fill="#735EFF" id="Shape"/><path d="M23,23 C23.0000001,16.3725831 28.3725831,11.0000003 35,11.0000003 C41.6274169,11.0000003 46.9999999,16.3725831 47,23 L23,23 Z" fill="#FFACAD" id="Shape"/></g><g fill="#000000" id="Layer_10"><path d="M48.866,23.5 L48.475,23.5 C48.3214934,19.6592841 46.4064418,16.1036556 43.284,13.862 C44.6251315,13.0772307 45.4635686,11.6533081 45.4992357,10.0998525 C45.5349028,8.5463969 44.7627008,7.08549426 43.459,6.24 C44.5372467,5.26927401 46.0230807,4.8892204 47.435,5.223 C47.7086571,5.26110764 47.9613923,5.07015709 47.9995,4.7965 C48.0376076,4.52284291 47.8466571,4.27010765 47.573,4.232 C44.792,3.843 43.287,4.86 42.514,5.781 C41.453444,5.37911172 40.2775591,5.40927182 39.239,5.865 C36.2332248,1.53042668 30.8256183,-0.44454057 25.7337996,0.932627698 C20.6419809,2.30979597 16.9671055,6.74127367 16.556,12 C14.9724236,12.4471788 13.4934639,13.204504 12.205,14.228 C11.6736084,11.9607019 10.9671564,9.73803593 10.092,7.58 C8.972,4.885 7.827,3.211 6.592,2.462 C5.50365081,1.83844166 4.17285701,1.81131336 3.06,2.39 C1.86472806,2.77266144 0.946390969,3.73734874 0.623,4.95 C0.284,6.356 0.666,8.35 1.79,11.043 C3.32797549,14.6819674 5.36155163,18.0908911 7.833,21.173 C7.65701738,21.9379228 7.55322875,22.7176767 7.523,23.502 L7.134,23.502 C6.41602734,23.5020249 5.73297998,23.8118383 5.26,24.352 C4.77825456,24.9020679 4.55704275,25.6331237 4.653,26.358 C5.914,35.969 14.675,43.375 25.5,44.375 L25.5,48.763 C22.047,49.504 19.329,51.746 18.657,54.631 C18.549025,55.0879269 18.6562477,55.5691394 18.948,55.937 C19.2303238,56.2939413 19.6609049,56.5014902 20.116,56.5 L35.884,56.5 C36.3390951,56.5014902 36.7696762,56.2939413 37.052,55.937 C37.3437523,55.5691394 37.450975,55.0879269 37.343,54.631 C36.671,51.746 33.953,49.504 30.5,48.763 L30.5,44.375 C41.325,43.375 50.086,35.969 51.347,26.356 C51.4429572,25.6311237 51.2217454,24.9000679 50.74,24.35 C50.26702,23.8098383 49.5839727,23.5000249 48.866,23.5 Z M47.475,23.5 L24.525,23.5 C24.78186,17.3487518 29.8433912,12.4941659 36,12.4941659 C42.1566088,12.4941659 47.21814,17.3487518 47.475,23.5 Z M41.946,6.646 C41.7351989,7.0497116 41.5865251,7.48292206 41.505,7.931 C41.4867744,8.06242416 41.5215331,8.19570345 41.6016216,8.30148775 C41.68171,8.40727206 41.8005604,8.47688616 41.932,8.495 C41.9545332,8.49814967 41.9772485,8.49981991 42,8.5 C42.2490192,8.49939422 42.459636,8.31563749 42.494,8.069 C42.5645301,7.71207096 42.6885977,7.36785075 42.862,7.048 C43.9736023,7.7422147 44.6009173,9.00207616 44.4849868,10.3075086 C44.3690562,11.6129411 43.5295425,12.742539 42.313,13.23 C40.9655149,12.4369011 39.4799982,11.906214 37.935,11.666 C37.6499984,11.1569706 37.5002323,10.5833839 37.5,10 C37.4846041,8.89995847 37.9944676,7.8584562 38.8727345,7.19590393 C39.7510015,6.53335165 40.8924791,6.32910537 41.946,6.646 Z M29,1.5 C32.7254672,1.49759057 36.2186433,3.30984826 38.362,6.357 C37.1932833,7.20267937 36.5008582,8.55740802 36.5,10 C36.5029539,10.5260793 36.599107,11.0474731 36.784,11.54 C36.523,11.523 36.265,11.5 36,11.5 C33.0745652,11.4977185 30.2419394,12.5266699 28,14.406 C25.7568478,12.5287743 22.9250142,11.5001108 20,11.5 C19.1875809,11.5068827 18.3778861,11.5949877 17.583,11.763 C18.2030642,5.92517251 23.1293357,1.49683541 29,1.5 Z M2.712,10.657 C1.672,8.165 1.312,6.374 1.594,5.183 C1.83453632,4.27569959 2.53774405,3.56373982 3.442,3.312 C4.25665347,2.84567434 5.25734653,2.84567434 6.072,3.312 C7.12,3.947 8.133,5.467 9.172,7.959 C10.0945486,10.2306673 10.8267344,12.5750669 11.361,14.968 C9.90516328,16.3596212 8.80731606,18.0825552 8.161,19.99 C5.95671606,17.122338 4.12572123,13.9862259 2.712,10.657 Z M17.146,12.863 C18.0778393,12.6201581 19.0370393,12.4981575 20,12.5 C22.6434027,12.4996101 25.2057062,13.412826 27.253,15.085 C24.981415,17.3110718 23.6475731,20.3218763 23.525,23.5 L8.525,23.5 C8.73455609,18.4396628 12.2387685,14.1159987 17.146,12.863 Z M36.368,54.857 C36.4067167,55.0166059 36.3698362,55.1851497 36.268,55.314 C36.1757922,55.4327671 36.0333509,55.5015828 35.883,55.5 L20.116,55.5 C19.9656491,55.5015828 19.8232078,55.4327671 19.731,55.314 C19.6291638,55.1851497 19.5922833,55.0166059 19.631,54.857 C20.353,51.757 23.873,49.5 27.999,49.5 C32.125,49.5 35.646,51.753 36.368,54.857 Z M29.5,48.6 C28.5042681,48.469338 27.4957319,48.469338 26.5,48.6 L26.5,44.439 C27,44.466 27.5,44.5 28,44.5 C28.5,44.5 29,44.466 29.5,44.439 L29.5,48.6 Z M50.354,26.226 C49.063,36.074 39.453,43.5 28,43.5 C16.547,43.5 6.937,36.074 5.646,26.226 C5.58659153,25.786519 5.72003281,25.3428085 6.012,25.009 C6.29359088,24.6834476 6.70356845,24.4974596 7.134,24.5 L48.866,24.5 C49.2964316,24.4974596 49.7064091,24.6834476 49.988,25.009 C50.2799672,25.3428085 50.4134085,25.786519 50.354,26.226 Z" id="Shape"/></g></g></g></svg>