<?xml version="1.0" ?><svg viewBox="0 0 64 64" xmlns="http://www.w3.org/2000/svg"><defs><style>.cls-1{fill:#c1272d;}.cls-2{fill:#d26266;}.cls-3{fill:#c7b299;}.cls-4{fill:#d2c1ad;}.cls-5{fill:#fbb03b;}.cls-6{fill:#8a490e;}.cls-7{fill:#a97a4e;}.cls-8{fill:#8cc63f;}.cls-9{fill:#a3d165;}.cls-10{fill:#fccb7e;}.cls-11{fill:#fdd598;}.cls-12{fill:#22b573;}.cls-13{fill:#5dc998;}</style></defs><title/><g data-name="Layer 25" id="Layer_25"><rect class="cls-1" height="10.628" rx="2" transform="translate(21.539 -38.511) rotate(45)" width="7.971" x="53.27" y="1.43"/><path class="cls-2" d="M62.417,4.391l-2-2a2,2,0,0,1,0,2.828L55.731,9.906a2,2,0,0,1-2.829,0l2,2a2,2,0,0,0,2.829,0l4.686-4.687A2,2,0,0,0,62.417,4.391Z"/><polygon class="cls-3" points="51.619 21.774 42.226 12.381 48.801 5.805 58.195 15.199 53.498 19.896 51.619 21.774"/><polygon class="cls-4" points="56.195 13.199 51.498 17.896 49.619 19.774 51.619 21.774 53.498 19.896 58.195 15.199 56.195 13.199"/><line class="cls-5" x1="45.983" x2="47.862" y1="8.623" y2="10.502"/><line class="cls-5" x1="52.559" x2="54.438" y1="17.077" y2="18.956"/><polygon class="cls-6" points="38.468 34.926 29.074 25.532 35.65 18.956 45.044 28.35 40.347 33.047 38.468 34.926"/><polygon class="cls-7" points="43.044 26.35 38.347 31.047 36.468 32.926 38.468 34.926 40.347 33.047 45.044 28.35 43.044 26.35"/><line class="cls-5" x1="32.832" x2="34.71" y1="21.774" y2="23.653"/><line class="cls-5" x1="39.407" x2="41.286" y1="30.229" y2="32.108"/><path class="cls-8" d="M43.635,20.365a4.654,4.654,0,0,1,0-6.575L40.347,10.5A9.3,9.3,0,0,0,53.5,23.653L50.21,20.365A4.654,4.654,0,0,1,43.635,20.365Z"/><path class="cls-9" d="M51.5,21.653a9.292,9.292,0,0,1-12.067.916A9.236,9.236,0,0,0,53.5,23.653Z"/><polygon class="cls-10" points="33.771 30.229 20.62 30.229 33.771 43.38 33.771 30.229"/><polygon class="cls-11" points="31.5 30.229 31.5 40.651 21.078 30.229 20.62 30.229 33.771 43.38 33.771 30.229 31.5 30.229"/><rect class="cls-12" height="5.314" transform="translate(34.768 -6.571) rotate(45)" width="21.256" x="14.688" y="36.027"/><rect class="cls-13" height="2.828" transform="translate(-22.637 35.747) rotate(-45)" width="5.314" x="29.175" y="43.784"/><path d="M63.124,7.926a3,3,0,0,0,0-4.242L60.316.875a3.006,3.006,0,0,0-4.242,0L51.388,5.562a2.978,2.978,0,0,0-.579.836l-1.3-1.3a1,1,0,0,0-1.414,0l-5.87,5.868L41.054,9.8a1,1,0,0,0-1.414,0,10.228,10.228,0,0,0-3.017,7.283,10.453,10.453,0,0,0,.13,1.568l-.4-.4a1.029,1.029,0,0,0-1.414,0l-6.575,6.576a1,1,0,0,0,0,1.414l2.99,2.99H21.034l-.647-.646a1,1,0,0,0-1.414,0L15.215,32.34a1,1,0,0,0,0,1.414l6.808,6.808L.293,62.293a1,1,0,1,0,1.414,1.414l21.731-21.73,6.808,6.808a1,1,0,0,0,1.414,0l3.757-3.758a1,1,0,0,0,0-1.414l-.646-.646V32.644l2.99,2.989a1,1,0,0,0,1.414,0l2.817-2.818h0l3.757-3.757a1,1,0,0,0,0-1.414l-.4-.4a10.177,10.177,0,0,0,8.856-2.881,1,1,0,0,0,0-1.414l-1.172-1.172L58.9,15.906a1,1,0,0,0,0-1.414l-1.3-1.3a2.972,2.972,0,0,0,.838-.576ZM43.745,18.841a3.537,3.537,0,0,1,0-3.527l1.763,1.764Zm3.177-.349,1.755,1.754a3.8,3.8,0,0,1-3.509,0ZM32.771,31.229v9.737l-9.737-9.737ZM30.953,46.664,17.336,33.047,19.68,30.7,33.3,44.32Zm10.333-15.97-1.172-1.172A1,1,0,1,0,38.7,30.936l1.172,1.172-1.4,1.4L34.48,29.524l0,0-3.988-3.988,2.343-2.343L34,24.36a1,1,0,0,0,1.414-1.414l-1.171-1.172,1.4-1.4,3.988,3.988,0,0,0,0L43.63,28.35Zm-.23-7.745,0-.005a8.3,8.3,0,0,1-.662-10.986l1.893,1.894a5.652,5.652,0,0,0,7.865,7.865l1.894,1.894A8.312,8.312,0,0,1,41.056,22.949Zm13.382-5.407-1.172-1.171a1,1,0,0,0-1.414,1.414l1.171,1.171-1.4,1.4-3.682-3.682a.918.918,0,0,0-.615-.615l-2.98-2.98h0l-.2-.205-.5-.5,2.343-2.343,1.172,1.172A1,1,0,0,0,48.569,9.8L47.4,8.623l1.405-1.4,3.99,3.99,1.4,1.4h0l0,0L56.781,15.2ZM57.023,11.2a1,1,0,0,1-1.414,0L52.8,8.39a1,1,0,0,1,0-1.413L57.488,2.29a1,1,0,0,1,1.414,0L61.71,5.1a1,1,0,0,1,0,1.414Z"/></g></svg>