<?xml version="1.0" ?><svg enable-background="new 0 0 64 64" id="Filled_Outline_1_" version="1.1" viewBox="0 0 64 64" xml:space="preserve" xmlns="http://www.w3.org/2000/svg" xmlns:xlink="http://www.w3.org/1999/xlink"><title/><desc/><g><g><path d="M26,61C13.297,61,3,50.703,3,38v-4c0-12.703,10.297-23,23-23V61z" fill="#009245"/><path d="M21.74,54.26c-2.74-2.74-4.81-6.18-5.87-10.03L16,44l-2-5l2-5l-1.99-4.98C12.49,31.55,12.07,35.38,10,34    l-2,5l2,5l-1.48,2.22C6.29,42.68,5,38.49,5,34v-4c0-2.9,0.54-5.67,1.52-8.22C4.29,25.32,3,29.51,3,34v4    c0,12.37,9.77,22.46,22.01,22.97C25.34,60.99,25.67,61,26,61c2.08,0,4.09-0.28,6-0.8C28.06,59.14,24.54,57.06,21.74,54.26z     M12.18,50.69l3.06-5.36c0.53,3.66,1.92,7.04,3.97,9.92C16.58,54.17,14.21,52.62,12.18,50.69z M8.93,22.66L7.3,20.62    c1.99-2.79,4.6-5.11,7.62-6.77L16,16l-0.69,0.92C15.21,16.94,15.1,16.97,15,17C12.29,17.78,10.2,20.02,8.93,22.66z M20.4,38l1.6-4    l-2-5l1.35-3.37C22.31,24.87,23,23.72,23,22c0-1.51-0.94-3.08-2.42-4.1L22,16l-2.09-4.17C21.85,11.28,23.89,11,26,11v27H20.4z" fill="#006837"/><path d="M57,38c0,5.24-2.13,10-5.57,13.43C48,54.87,43.24,57,38,57s-10-2.13-13.43-5.57C21.13,48,19,43.24,19,38h7    V15c9.94,0,18,8.06,18,18v10.6c1.22-0.53,2.03-1.53,2-2.68c1.62,0.1,2.96-1.29,3-2.92H57z" fill="#EB2335"/><path d="M44,36.46v7.14c-0.59,0.25-1.27,0.4-2,0.4c-2.21,0-4-1.34-4-3h-1c-1.66,0-4-1.34-4-3h-7V15    c0.1,0,0.2,0,0.3,0.01C27.78,24.99,34.73,33.18,44,36.46z M51.89,38c-1,9.55-9.08,17-18.89,17c-1.54,0-3.03-0.18-4.47-0.54    C31.32,56.08,34.56,57,38,57c10.49,0,19-8.51,19-19H51.89z" fill="#C12034"/><path d="M49,34v4c-0.04,1.63-1.38,3.02-3,2.92c0.03,1.15-0.78,2.15-2,2.68V33c0-9.94-8.06-18-18-18v-4    C38.7,11,49,21.3,49,34z M57,38c0,10.493-8.507,19-19,19s-19-8.507-19-19h-4v0c0,12.703,10.297,23,23,23h0    c12.703,0,23-10.297,23-23v0H57z" fill="#F2E880"/><path d="M49,37.7V38c-0.04,1.63-1.38,3.02-3,2.92c0.03,1.15-0.78,2.15-2,2.68v-7.14    C45.6,37.03,47.27,37.45,49,37.7z M57,38c0,10.49-8.51,19-19,19c-3.44,0-6.68-0.92-9.47-2.54c-5.61-1.34-10.25-5.19-12.68-10.29    c1.07,3.87,3.13,7.33,5.89,10.09C25.9,58.42,31.65,61,38,61s12.1-2.58,16.26-6.74C58.42,50.1,61,44.35,61,38H57z" fill="#ADCC39"/><path d="M10,24l-2,5l2,5c-2.97-1.98-3.05-7.16-1.07-11.34L10,24z" fill="#39B54A"/><path d="M19,20l3,4l-0.65,1.63C20.01,26.7,18.17,27,17,27c-1.39,0-2.3,0.87-2.99,2.01L14,29l2-5l-3-4l2.31-3.08    c2.02-0.48,3.88,0.01,5.27,0.98L19,20z" fill="#39B54A"/><path d="M30,21c-0.026-1.083,1.292-2.542,4-2s5,5,3,7c-0.707,0.707-1-2-3-3C32.917,22.458,30.041,22.726,30,21z     M29,44c0-1.105-1.343-2-3-2s-3,0.895-3,2s1.343,2,3,2S29,45.105,29,44z" fill="#FF6F77"/></g><path d="M61,37H49c-0.553,0-1,0.448-1,1c0,1.103-0.897,2-2,2c-0.553,0-1,0.448-1,1c0,1.084-1.374,2-3,2   s-3-0.916-3-2c0-0.552-0.447-1-1-1h-1c-1.239,0-3-1.034-3-2c0-0.552-0.447-1-1-1H15c-0.553,0-1,0.448-1,1c0,13.233,10.767,24,24,24   s24-10.767,24-24C62,37.448,61.553,37,61,37z M37,42h0.158c0.557,1.723,2.517,3,4.842,3c2.368,0,4.357-1.324,4.871-3.096   c1.465-0.326,2.629-1.458,3.002-2.904h6.076C55.426,48.459,47.587,56,38,56s-17.426-7.541-17.949-17h12.13   C32.858,40.837,35.301,42,37,42z M38,60c-11.796,0-21.452-9.332-21.978-21h2.028C18.577,49.562,27.309,58,38,58   s19.423-8.438,19.949-19h2.028C59.452,50.668,49.796,60,38,60z M27.054,10.027c0.19-1.903,0.927-3.56,1.984-4.653   C29.224,6.85,30.474,8,32,8c1.654,0,3-1.346,3-3c0-0.352-0.072-0.686-0.184-1H37V2h-5c-3.603,0-6.577,3.519-6.957,8.024   C12.252,10.529,2,21.088,2,34v4c0,13.233,10.767,24,24,24v-2c-3.421,0-6.661-0.785-9.552-2.184l0.5-1.5   c0.107-0.322,0.045-0.676-0.167-0.941l-3.576-4.469l1.663-2.91l-1.736-0.992l-2,3.5c-0.203,0.356-0.169,0.8,0.087,1.121l3.66,4.575   l-0.215,0.647c-2.944-1.778-5.436-4.227-7.271-7.132l3.44-5.16c0.183-0.274,0.219-0.62,0.097-0.926L9.077,39l1.852-4.628   c0.095-0.239,0.095-0.504,0-0.743L9.077,29l1.852-4.628c0.129-0.324,0.081-0.692-0.129-0.972l-2.164-2.885   c1.624-2.086,3.611-3.875,5.871-5.265l0.322,0.645L12.2,19.4c-0.267,0.355-0.267,0.845,0,1.2l2.663,3.55l-1.792,4.478   c-0.095,0.239-0.095,0.504,0,0.743L14.923,34l-0.252,0.628l1.857,0.743l0.4-1c0.095-0.238,0.095-0.504,0-0.743L15.077,29   l1.852-4.628c0.129-0.324,0.081-0.692-0.129-0.972L14.25,20l2.55-3.4c0.228-0.303,0.264-0.708,0.095-1.047l-0.636-1.271   c1.003-0.498,2.049-0.923,3.131-1.265l1.439,2.878L18.2,19.4c-0.267,0.355-0.267,0.845,0,1.2l2.663,3.55l-1.792,4.478   c-0.095,0.239-0.095,0.504,0,0.743L20.923,34l-0.252,0.628l1.857,0.743l0.4-1c0.095-0.238,0.095-0.504,0-0.743L21.077,29   l1.852-4.628c0.129-0.324,0.081-0.692-0.129-0.972L20.25,20l2.55-3.4c0.228-0.303,0.264-0.708,0.095-1.047l-1.529-3.057   c1.18-0.254,2.393-0.414,3.634-0.47V35h2V16.051C35.908,16.573,43,23.964,43,33v5h2v-5c0-10.139-7.989-18.424-18-18.949v-2.025   C38.668,12.55,48,22.204,48,34v1h2v-1C50,21.12,39.8,10.581,27.054,10.027z M33,5c0,0.551-0.448,1-1,1s-1-0.449-1-1s0.448-1,1-1   S33,4.449,33,5z M8.863,24.15l-1.792,4.478c-0.095,0.239-0.095,0.504,0,0.743L8.923,34l-1.852,4.628   c-0.095,0.239-0.095,0.504,0,0.743l1.805,4.511L6.291,47.76C4.828,44.817,4,41.504,4,38v-4c0-4.326,1.26-8.361,3.425-11.767   L8.863,24.15z M41,4h-2V2h2V4z M30,27c-0.552,0-1-0.448-1-1s0.448-1,1-1s1,0.448,1,1S30.552,27,30,27z M30,35c-0.552,0-1-0.448-1-1   s0.448-1,1-1s1,0.448,1,1S30.552,35,30,35z M38,35c-0.552,0-1-0.448-1-1s0.448-1,1-1s1,0.448,1,1S38.552,35,38,35z M34,31   c-0.552,0-1-0.448-1-1s0.448-1,1-1s1,0.448,1,1S34.552,31,34,31z M27.586,50.414c-0.391-0.391-0.391-1.024,0-1.414   s2.438-1.805,2.828-1.414c0.391,0.391-1.024,2.438-1.414,2.828C28.609,50.805,27.976,50.805,27.586,50.414z M47,50.414   c-0.391-0.391-1.805-2.438-1.414-2.828c0.391-0.391,2.438,1.024,2.828,1.414c0.391,0.391,0.391,1.024,0,1.414   C48.024,50.805,47.391,50.805,47,50.414z M53,43c-0.552,0-3-0.448-3-1s2.448-1,3-1s1,0.448,1,1S53.552,43,53,43z M38,53   c-0.552,0-1-0.448-1-1s0.448-3,1-3s1,2.448,1,3S38.552,53,38,53z M34,24c-0.552,0-1-0.448-1-1s0.448-1,1-1s1,0.448,1,1   S34.552,24,34,24z M38,27c-0.552,0-1-0.448-1-1s0.448-1,1-1s1,0.448,1,1S38.552,27,38,27z M30,21c-0.552,0-1-0.448-1-1s0.448-1,1-1   s1,0.448,1,1S30.552,21,30,21z M22,42c0-0.552,0.448-1,1-1s3,0.448,3,1s-2.448,1-3,1S22,42.552,22,42z" fill="#28284B"/></g></svg>